<svg width="32" height="26" viewBox="0 0 32 26" fill="none" xmlns="http://www.w3.org/2000/svg">
<path d="M7.2 0C8.26087 0 9.27828 0.428012 10.0284 1.18988C10.7786 1.95175 11.2 2.98506 11.2 4.0625C11.2 5.13994 10.7786 6.17325 10.0284 6.93512C9.27828 7.69699 8.26087 8.125 7.2 8.125C6.13913 8.125 5.12172 7.69699 4.37157 6.93512C3.62143 6.17325 3.2 5.13994 3.2 4.0625C3.2 2.98506 3.62143 1.95175 4.37157 1.18988C5.12172 0.428012 6.13913 0 7.2 0ZM25.6 0C26.6609 0 27.6783 0.428012 28.4284 1.18988C29.1786 1.95175 29.6 2.98506 29.6 4.0625C29.6 5.13994 29.1786 6.17325 28.4284 6.93512C27.6783 7.69699 26.6609 8.125 25.6 8.125C24.5391 8.125 23.5217 7.69699 22.7716 6.93512C22.0214 6.17325 21.6 5.13994 21.6 4.0625C21.6 2.98506 22.0214 1.95175 22.7716 1.18988C23.5217 0.428012 24.5391 0 25.6 0ZM0 15.1684C0 12.1773 2.39 9.75 5.335 9.75H7.47C8.265 9.75 9.02 9.92773 9.7 10.2426C9.635 10.6082 9.605 10.9891 9.605 11.375C9.605 13.3148 10.445 15.0566 11.77 16.25C11.76 16.25 11.75 16.25 11.735 16.25H1.065C0.48 16.25 0 15.7625 0 15.1684ZM20.265 16.25C20.255 16.25 20.245 16.25 20.23 16.25C21.56 15.0566 22.395 13.3148 22.395 11.375C22.395 10.9891 22.36 10.6133 22.3 10.2426C22.98 9.92266 23.735 9.75 24.53 9.75H26.665C29.61 9.75 32 12.1773 32 15.1684C32 15.7676 31.52 16.25 30.935 16.25H20.27H20.265ZM11.2 11.375C11.2 10.0821 11.7057 8.84209 12.6059 7.92785C13.5061 7.01361 14.727 6.5 16 6.5C17.273 6.5 18.4939 7.01361 19.3941 7.92785C20.2943 8.84209 20.8 10.0821 20.8 11.375C20.8 12.6679 20.2943 13.9079 19.3941 14.8221C18.4939 15.7364 17.273 16.25 16 16.25C14.727 16.25 13.5061 15.7364 12.6059 14.8221C11.7057 13.9079 11.2 12.6679 11.2 11.375ZM6.4 24.6441C6.4 20.9066 9.385 17.875 13.065 17.875H18.93C22.615 17.875 25.6 20.9066 25.6 24.6441C25.6 25.3906 25.005 26 24.265 26H7.73C6.995 26 6.395 25.3957 6.395 24.6441H6.4Z" fill="black"/>
</svg>
