<svg width="20" height="20" viewBox="0 0 20 20" fill="none" xmlns="http://www.w3.org/2000/svg">
<path d="M16.0476 9.03452L16.4896 8.59266L15.1637 7.26711L12.7348 4.83887L11.4089 3.51331L10.9669 3.95517L10.0829 4.83887L2.29167 12.628C1.88489 13.0346 1.58764 13.5391 1.42336 14.0904L0.0387675 18.7983C-0.0590145 19.1267 0.030945 19.4826 0.277356 19.725C0.523767 19.9674 0.875782 20.0574 1.20433 19.9635L5.9096 18.5793C6.46109 18.4151 6.96565 18.1179 7.37242 17.7112L15.1637 9.92213L16.0476 9.03452ZM6.25771 15.6193L5.90178 16.5069C5.74533 16.6281 5.56932 16.7181 5.38158 16.7767L2.32296 17.6761L3.22255 14.6222C3.27731 14.4306 3.37118 14.2546 3.49243 14.1021L4.38029 13.7463V14.9976C4.38029 15.3417 4.6619 15.6232 5.0061 15.6232H6.25771V15.6193ZM14.1859 0.733162L13.6227 1.30014L12.7387 2.18385L12.2928 2.6257L13.6187 3.95126L16.0476 6.37949L17.3736 7.70505L17.8155 7.2632L18.6995 6.37949L19.2666 5.81251C20.2445 4.83496 20.2445 3.25133 19.2666 2.27378L17.7295 0.733162C16.7517 -0.244387 15.1676 -0.244387 14.1898 0.733162H14.1859ZM12.3319 7.3023L6.69968 12.933C6.45718 13.1754 6.05823 13.1754 5.81573 12.933C5.57323 12.6906 5.57323 12.2917 5.81573 12.0493L11.448 6.41859C11.6905 6.17616 12.0894 6.17616 12.3319 6.41859C12.5744 6.66102 12.5744 7.05986 12.3319 7.3023Z" fill="#474747"/>
</svg>
