<svg width="32" height="26" viewBox="0 0 32 26" fill="none" xmlns="http://www.w3.org/2000/svg">
<path d="M26.7063 12.1888V12.3563L30.1913 8.81689C31.2863 7.70479 31.2863 5.90713 30.1913 4.79502L26.2862 0.834082C25.1912 -0.278027 23.4212 -0.278027 22.3263 0.834082L20.3212 2.87041C20.1862 2.85518 20.0462 2.84502 19.9062 2.84502H14.3063C12.4513 2.84502 10.9262 4.26689 10.7262 6.09502H10.7063V12.1888C10.7063 13.311 11.6012 14.22 12.7063 14.22C13.8113 14.22 14.7063 13.311 14.7063 12.1888V8.53252V8.52744V7.72002H15.5063H22.3062C22.3062 7.72002 22.3063 7.72002 22.3113 7.72002H22.7063C24.9163 7.72002 26.7063 9.53799 26.7063 11.7825V12.1888ZM16.3062 9.34502V12.1888C16.3062 14.2099 14.6962 15.845 12.7063 15.845C10.7163 15.845 9.10625 14.2099 9.10625 12.1888V6.16611C7.31125 6.48096 5.81625 7.80635 5.30625 9.62939L4.48125 12.5544L0.82125 16.2716C-0.27375 17.3837 -0.27375 19.1813 0.82125 20.2935L4.72625 24.2595C5.82125 25.3716 7.59125 25.3716 8.68625 24.2595L10.5712 22.345C10.6163 22.345 10.6613 22.3501 10.7063 22.3501H18.7063C20.0312 22.3501 21.1063 21.2583 21.1063 19.9126C21.1063 19.6282 21.0562 19.354 20.9713 19.1001H21.1063C22.4312 19.1001 23.5063 18.0083 23.5063 16.6626C23.5063 16.0126 23.2563 15.4235 22.8463 14.9868C24.1313 14.7329 25.1012 13.5853 25.1063 12.204V12.1837C25.1012 10.6196 23.8512 9.3501 22.3062 9.3501H16.3062V9.34502Z" fill="black"/>
</svg>
