<svg width="27" height="28" viewBox="0 0 27 28" fill="none" xmlns="http://www.w3.org/2000/svg">
<path d="M21.2143 12C24.4085 12 27 9.3125 27 6C27 2.6875 24.4085 0 21.2143 0C18.0201 0 15.4286 2.6875 15.4286 6C15.4286 6.25 15.4406 6.5 15.4708 6.74375L9.79955 9.68125C8.76295 8.6375 7.34665 8 5.78571 8C2.59152 8 0 10.6875 0 14C0 17.3125 2.59152 20 5.78571 20C7.34665 20 8.76295 19.3625 9.79955 18.3188L15.4708 21.2563C15.4406 21.5 15.4286 21.7437 15.4286 22C15.4286 25.3125 18.0201 28 21.2143 28C24.4085 28 27 25.3125 27 22C27 18.6875 24.4085 16 21.2143 16C19.6533 16 18.2371 16.6375 17.2004 17.6812L11.5292 14.7437C11.5594 14.5 11.5714 14.2563 11.5714 14C11.5714 13.7437 11.5594 13.5 11.5292 13.2563L17.2004 10.3188C18.2371 11.3625 19.6533 12 21.2143 12Z" fill="white"/>
</svg>
