<svg width="32" height="26" viewBox="0 0 32 26" fill="none" xmlns="http://www.w3.org/2000/svg">
<path d="M1.84029 9.75H30.1597C31.1749 9.75 32 8.91211 32 7.88125C32 7.51055 31.89 7.15 31.69 6.84531L27.9144 1.08672C27.4693 0.40625 26.7242 0 25.919 0H6.08595C5.28583 0 4.53571 0.40625 4.09064 1.08672L0.310048 6.84023C0.110017 7.15 0 7.51055 0 7.87617C0 8.91211 0.825129 9.75 1.84029 9.75ZM3.2005 11.375V19.5V23.5625C3.2005 24.9082 4.27567 26 5.60087 26H16.8026C18.1278 26 19.203 24.9082 19.203 23.5625V19.5V11.375H16.0025V19.5H6.401V11.375H3.2005ZM25.604 11.375V24.375C25.604 25.2738 26.3191 26 27.2043 26C28.0894 26 28.8045 25.2738 28.8045 24.375V11.375H25.604Z" fill="black"/>
</svg>
