<svg width="22" height="30" viewBox="0 0 22 30" fill="none" xmlns="http://www.w3.org/2000/svg">
<path d="M11 0C8.60521 0 6.56563 1.56445 5.8151 3.75H3.66667C1.64427 3.75 0 5.43164 0 7.5V26.25C0 28.3184 1.64427 30 3.66667 30H18.3333C20.3557 30 22 28.3184 22 26.25V7.5C22 5.43164 20.3557 3.75 18.3333 3.75H16.1849C15.4344 1.56445 13.3948 0 11 0ZM11 3.75C11.4862 3.75 11.9525 3.94754 12.2964 4.29917C12.6402 4.65081 12.8333 5.12772 12.8333 5.625C12.8333 6.12228 12.6402 6.59919 12.2964 6.95083C11.9525 7.30246 11.4862 7.5 11 7.5C10.5138 7.5 10.0475 7.30246 9.70364 6.95083C9.35982 6.59919 9.16667 6.12228 9.16667 5.625C9.16667 5.12772 9.35982 4.65081 9.70364 4.29917C10.0475 3.94754 10.5138 3.75 11 3.75ZM17.474 15.9961L10.1406 23.4961C9.60208 24.0469 8.73125 24.0469 8.19844 23.4961L4.52604 19.7461C3.9875 19.1953 3.9875 18.3047 4.52604 17.7598C5.06458 17.2148 5.93542 17.209 6.46823 17.7598L9.16094 20.5137L15.526 14.0039C16.0646 13.4531 16.9354 13.4531 17.4682 14.0039C18.001 14.5547 18.0068 15.4453 17.4682 15.9902L17.474 15.9961Z" fill="black"/>
</svg>
