<svg width="28" height="24" viewBox="0 0 28 24" fill="none" xmlns="http://www.w3.org/2000/svg">
<path d="M9.625 3V5.14286H18.375V3C18.375 2.76429 18.1781 2.57143 17.9375 2.57143H10.0625C9.82187 2.57143 9.625 2.76429 9.625 3ZM7 5.14286V3C7 1.34464 8.37266 0 10.0625 0H17.9375C19.6273 0 21 1.34464 21 3V5.14286H22.5367C23.2313 5.14286 23.8984 5.41607 24.3906 5.89821L27.2289 8.67857C27.7211 9.16071 28 9.81429 28 10.4946V15.4286H21V13.7143C21 12.7661 20.218 12 19.25 12C18.282 12 17.5 12.7661 17.5 13.7143V15.4286H10.5V13.7143C10.5 12.7661 9.71797 12 8.75 12C7.78203 12 7 12.7661 7 13.7143V15.4286H0V10.4946C0 9.81429 0.278906 9.16071 0.771094 8.67857L3.60938 5.89821C4.10156 5.41607 4.76875 5.14286 5.46328 5.14286H7ZM0 20.5714V17.1429H7C7 18.0911 7.78203 18.8571 8.75 18.8571C9.71797 18.8571 10.5 18.0911 10.5 17.1429H17.5C17.5 18.0911 18.282 18.8571 19.25 18.8571C20.218 18.8571 21 18.0911 21 17.1429H28V20.5714C28 22.4625 26.4305 24 24.5 24H3.5C1.56953 24 0 22.4625 0 20.5714Z" fill="white"/>
</svg>
