<svg width="164" height="184" viewBox="0 0 164 184" fill="none" xmlns="http://www.w3.org/2000/svg">
<rect x="4" y="24" width="156" height="156" rx="6" fill="white" stroke="#91CD71" stroke-width="8"/>
<path d="M44.7727 147V139.909L61.3409 124.568C62.75 123.205 63.9318 121.977 64.8864 120.886C65.8561 119.795 66.5909 118.727 67.0909 117.682C67.5909 116.621 67.8409 115.477 67.8409 114.25C67.8409 112.886 67.5303 111.712 66.9091 110.727C66.2879 109.727 65.4394 108.962 64.3636 108.432C63.2879 107.886 62.0682 107.614 60.7045 107.614C59.2803 107.614 58.0379 107.902 56.9773 108.477C55.9167 109.053 55.0985 109.879 54.5227 110.955C53.947 112.03 53.6591 113.311 53.6591 114.795H44.3182C44.3182 111.75 45.0076 109.106 46.3864 106.864C47.7652 104.621 49.697 102.886 52.1818 101.659C54.6667 100.432 57.5303 99.8182 60.7727 99.8182C64.1061 99.8182 67.0076 100.409 69.4773 101.591C71.9621 102.758 73.8939 104.379 75.2727 106.455C76.6515 108.53 77.3409 110.909 77.3409 113.591C77.3409 115.348 76.9924 117.083 76.2955 118.795C75.6136 120.508 74.3939 122.409 72.6364 124.5C70.8788 126.576 68.4015 129.068 65.2045 131.977L58.4091 138.636V138.955H77.9545V147H44.7727ZM102.449 147.636C98.9489 147.636 95.8352 147.068 93.108 145.932C90.3958 144.78 88.267 143.212 86.7216 141.227C85.1761 139.242 84.4034 136.992 84.4034 134.477C84.4034 132.538 84.8428 130.758 85.7216 129.136C86.6155 127.5 87.8277 126.144 89.358 125.068C90.8883 123.977 92.6004 123.28 94.4943 122.977V122.659C92.0095 122.159 89.9943 120.955 88.4489 119.045C86.9034 117.121 86.1307 114.886 86.1307 112.341C86.1307 109.932 86.8352 107.788 88.2443 105.909C89.6534 104.015 91.5852 102.53 94.0398 101.455C96.5095 100.364 99.3125 99.8182 102.449 99.8182C105.585 99.8182 108.381 100.364 110.835 101.455C113.305 102.545 115.244 104.038 116.653 105.932C118.063 107.811 118.775 109.947 118.79 112.341C118.775 114.902 117.987 117.136 116.426 119.045C114.866 120.955 112.866 122.159 110.426 122.659V122.977C112.29 123.28 113.979 123.977 115.494 125.068C117.025 126.144 118.237 127.5 119.131 129.136C120.04 130.758 120.502 132.538 120.517 134.477C120.502 136.992 119.722 139.242 118.176 141.227C116.631 143.212 114.494 144.78 111.767 145.932C109.055 147.068 105.949 147.636 102.449 147.636ZM102.449 140.409C104.009 140.409 105.373 140.129 106.54 139.568C107.706 138.992 108.616 138.205 109.267 137.205C109.934 136.189 110.267 135.023 110.267 133.705C110.267 132.356 109.926 131.167 109.244 130.136C108.563 129.091 107.638 128.273 106.472 127.682C105.305 127.076 103.964 126.773 102.449 126.773C100.949 126.773 99.608 127.076 98.4261 127.682C97.2443 128.273 96.3125 129.091 95.6307 130.136C94.964 131.167 94.6307 132.356 94.6307 133.705C94.6307 135.023 94.9564 136.189 95.608 137.205C96.2595 138.205 97.1761 138.992 98.358 139.568C99.5398 140.129 100.903 140.409 102.449 140.409ZM102.449 119.614C103.752 119.614 104.911 119.348 105.926 118.818C106.941 118.288 107.737 117.553 108.312 116.614C108.888 115.674 109.176 114.591 109.176 113.364C109.176 112.152 108.888 111.091 108.312 110.182C107.737 109.258 106.949 108.538 105.949 108.023C104.949 107.492 103.782 107.227 102.449 107.227C101.131 107.227 99.964 107.492 98.9489 108.023C97.9337 108.538 97.1383 109.258 96.5625 110.182C96.0019 111.091 95.7216 112.152 95.7216 113.364C95.7216 114.591 96.0095 115.674 96.5852 116.614C97.161 117.553 97.9564 118.288 98.9716 118.818C99.9867 119.348 101.146 119.614 102.449 119.614Z" fill="black"/>
<path d="M23.5 8C23.5 3.85786 26.8579 0.5 31 0.5C35.1421 0.5 38.5 3.85786 38.5 8V19.5H23.5V8Z" fill="#91CD71" stroke="#91CD71"/>
<path d="M124.5 8C124.5 3.85786 127.858 0.5 132 0.5C136.142 0.5 139.5 3.85786 139.5 8V19.5H124.5V8Z" fill="#91CD71" stroke="#91CD71"/>
<rect x="5" y="24" width="156" height="28" fill="#91CD71"/>
<path d="M47.517 79V61.5455H59.0739V64.5881H51.2074V68.7472H58.3068V71.7898H51.2074V79H47.517ZM61.277 79V65.9091H64.7969V68.1932H64.9332C65.1719 67.3807 65.5724 66.767 66.1349 66.3523C66.6974 65.9318 67.3452 65.7216 68.0781 65.7216C68.2599 65.7216 68.456 65.733 68.6662 65.7557C68.8764 65.7784 69.0611 65.8097 69.2202 65.8494V69.071C69.0497 69.0199 68.8139 68.9744 68.5128 68.9347C68.2116 68.8949 67.9361 68.875 67.6861 68.875C67.152 68.875 66.6747 68.9915 66.2543 69.2244C65.8395 69.4517 65.5099 69.7699 65.2656 70.179C65.027 70.5881 64.9077 71.0597 64.9077 71.5938V79H61.277ZM71.0973 79V65.9091H74.728V79H71.0973ZM72.9212 64.2216C72.3814 64.2216 71.9183 64.0426 71.532 63.6847C71.1513 63.321 70.9609 62.8864 70.9609 62.3807C70.9609 61.8807 71.1513 61.4517 71.532 61.0938C71.9183 60.7301 72.3814 60.5483 72.9212 60.5483C73.4609 60.5483 73.9212 60.7301 74.3018 61.0938C74.6882 61.4517 74.8814 61.8807 74.8814 62.3807C74.8814 62.8864 74.6882 63.321 74.3018 63.6847C73.9212 64.0426 73.4609 64.2216 72.9212 64.2216ZM82.4602 79.2131C81.4659 79.2131 80.5653 78.9574 79.7585 78.446C78.9574 77.929 78.321 77.1705 77.8494 76.1705C77.3835 75.1648 77.1506 73.9318 77.1506 72.4716C77.1506 70.9716 77.392 69.7244 77.875 68.7301C78.358 67.7301 79 66.983 79.8011 66.4886C80.608 65.9886 81.4915 65.7386 82.4517 65.7386C83.1847 65.7386 83.7955 65.8636 84.2841 66.1136C84.7784 66.358 85.1761 66.6648 85.4773 67.0341C85.7841 67.3977 86.017 67.7557 86.1761 68.108H86.2869V61.5455H89.9091V79H86.3295V76.9034H86.1761C86.0057 77.267 85.7642 77.6278 85.4517 77.9858C85.1449 78.3381 84.7443 78.6307 84.25 78.8636C83.7614 79.0966 83.1648 79.2131 82.4602 79.2131ZM83.6108 76.3239C84.196 76.3239 84.6903 76.1648 85.0938 75.8466C85.5028 75.5227 85.8153 75.071 86.0312 74.4915C86.2528 73.9119 86.3636 73.233 86.3636 72.4545C86.3636 71.6761 86.2557 71 86.0398 70.4261C85.8239 69.8523 85.5114 69.4091 85.1023 69.0966C84.6932 68.7841 84.196 68.6278 83.6108 68.6278C83.0142 68.6278 82.5114 68.7898 82.1023 69.1136C81.6932 69.4375 81.3835 69.8864 81.1733 70.4602C80.9631 71.0341 80.858 71.6989 80.858 72.4545C80.858 73.2159 80.9631 73.8892 81.1733 74.4744C81.3892 75.054 81.6989 75.5085 82.1023 75.8381C82.5114 76.1619 83.0142 76.3239 83.6108 76.3239ZM96.6271 79.2472C95.7919 79.2472 95.0476 79.1023 94.3942 78.8125C93.7408 78.517 93.2237 78.0824 92.843 77.5085C92.468 76.929 92.2805 76.2074 92.2805 75.3438C92.2805 74.6165 92.4141 74.0057 92.6811 73.5114C92.9482 73.017 93.3118 72.6193 93.772 72.3182C94.2322 72.017 94.755 71.7898 95.3402 71.6364C95.9311 71.483 96.5504 71.375 97.1982 71.3125C97.9595 71.233 98.5732 71.1591 99.0391 71.0909C99.505 71.017 99.843 70.9091 100.053 70.767C100.263 70.625 100.369 70.4148 100.369 70.1364V70.0852C100.369 69.5455 100.198 69.1278 99.8572 68.8324C99.522 68.5369 99.0447 68.3892 98.4254 68.3892C97.772 68.3892 97.2521 68.5341 96.8658 68.8239C96.4794 69.108 96.2237 69.4659 96.0987 69.8977L92.7408 69.625C92.9112 68.8295 93.2464 68.142 93.7464 67.5625C94.2464 66.9773 94.8913 66.5284 95.6811 66.2159C96.4766 65.8977 97.397 65.7386 98.4425 65.7386C99.1697 65.7386 99.8658 65.8239 100.531 65.9943C101.201 66.1648 101.795 66.429 102.312 66.7869C102.835 67.1449 103.246 67.6051 103.548 68.1676C103.849 68.7244 103.999 69.392 103.999 70.1705V79H100.556V77.1847H100.454C100.244 77.5938 99.9624 77.9545 99.6101 78.267C99.2578 78.5739 98.8345 78.8153 98.3402 78.9915C97.8459 79.1619 97.2749 79.2472 96.6271 79.2472ZM97.6669 76.7415C98.201 76.7415 98.6726 76.6364 99.0817 76.4261C99.4908 76.2102 99.8118 75.9205 100.045 75.5568C100.278 75.1932 100.394 74.7812 100.394 74.321V72.9318C100.281 73.0057 100.124 73.0739 99.9254 73.1364C99.7322 73.1932 99.5135 73.2472 99.2692 73.2983C99.0249 73.3437 98.7805 73.3864 98.5362 73.4261C98.2919 73.4602 98.0703 73.4915 97.8714 73.5199C97.4453 73.5824 97.0732 73.6818 96.755 73.8182C96.4368 73.9545 96.1896 74.1392 96.0135 74.3722C95.8374 74.5994 95.7493 74.8835 95.7493 75.2244C95.7493 75.7188 95.9283 76.0966 96.2862 76.358C96.6499 76.6136 97.1101 76.7415 97.6669 76.7415ZM108.589 83.9091C108.129 83.9091 107.697 83.8722 107.293 83.7983C106.896 83.7301 106.566 83.642 106.305 83.5341L107.123 80.8239C107.549 80.9545 107.933 81.0256 108.273 81.0369C108.62 81.0483 108.918 80.9688 109.168 80.7983C109.424 80.6278 109.631 80.3381 109.79 79.929L110.004 79.375L105.308 65.9091H109.126L111.836 75.5227H111.972L114.708 65.9091H118.552L113.464 80.4148C113.219 81.1193 112.887 81.733 112.467 82.2557C112.052 82.7841 111.526 83.1903 110.89 83.4744C110.254 83.7642 109.487 83.9091 108.589 83.9091Z" fill="black"/>
</svg>
